PathFileType	4	(X/Y/Z)	D:\TRACE\spot_10-12-23\spot_arm_body_motion_1_7-platform.trc
DataRate	CameraRate	NumFrames	NumMarkers	Units	OrigDataRate	OrigDataStartFrame	OrigNumFrames
100.00	100.00	      37	5	mm	100.00	2626	      7000
Frame#	Time	Left_Front			Right_Front			Left_Aft			Right_Aft			Post			
		X1	Y1	Z1	X2	Y2	Z2	X3	Y3	Z3	X4	Y4	Z4	X5	Y5	Z5	

2626	26.250	-742.31519	28.22784	-647.06909	825.14655	26.17158	-622.54340	-673.71454	0.33118	491.24658	733.16907	-3.28050	593.42395	45.33614	763.81085	-939.78912	
2627	26.260	-742.89441	27.86287	-647.10022	824.63788	25.91139	-622.67151	-674.25507	0.76903	491.05209	732.50122	-3.10337	592.96124	44.84674	763.40430	-940.30933	
2628	26.270	-743.46478	27.54409	-647.24164	824.05084	25.63247	-622.84271	-674.66187	1.09985	490.89322	731.91241	-2.70859	592.84729	43.89000	762.69702	-941.11542	
2629	26.280	-744.04022	27.07788	-647.32642	823.38977	24.99121	-622.96423	-675.23083	1.33542	490.83160	731.38507	-2.32731	593.01477	-17.30972	732.53101	-978.95154	
2630	26.290	-744.71777	26.48450	-647.39893	822.98517	24.43254	-622.93054	-675.85504	1.57159	490.84082	730.85992	-1.93812	592.85419	42.72279	761.55945	-942.09583	
2631	26.300	-745.26874	25.72045	-647.64301	822.33344	23.85825	-623.21906	-676.43866	1.88537	490.74368	730.33881	-1.48309	592.79694	42.27762	760.48889	-942.34949	
2632	26.310	-745.83948	25.41769	-647.73584	821.65302	23.48994	-623.38989	-677.04504	2.31339	490.54977	729.90045	-1.14196	592.70483	41.76413	760.02100	-942.87213	
2633	26.320	-746.42108	25.05196	-647.82587	821.03339	23.07013	-623.47906	-677.65991	2.71896	490.32980	729.10968	-0.70028	592.61462	41.12736	759.33197	-943.38342	
2634	26.330	-747.07727	24.66467	-647.94635	820.33496	22.45257	-623.66302	-678.28040	2.98902	490.29639	728.37897	-0.33380	592.48602	40.62472	758.49689	-943.81152	
2635	26.340	-747.84515	24.11354	-648.10492	819.70825	22.02781	-623.72766	-678.92426	3.22460	490.22998	727.75824	0.01474	592.47009	39.92287	757.88385	-944.45898	
2636	26.350	-748.56366	23.67096	-648.25439	819.03796	21.62959	-623.84967	-679.66974	3.51472	490.07364	727.03931	0.34395	592.40369	39.37115	757.20996	-945.20508	
2637	26.360	-749.21454	23.34237	-648.46375	818.34192	21.06623	-623.92462	-680.48743	3.93871	489.98325	726.46344	0.74248	592.21130	38.76718	756.53705	-945.94550	
2638	26.370	-749.54913	22.75428	-648.60510	817.56830	20.46029	-624.09430	-680.96301	4.34486	489.96057	725.76733	1.22125	591.95782	37.81279	755.91608	-946.73792	
2639	26.380	-750.13196	21.94634	-648.61786	817.04340	20.29889	-624.19647	-681.75720	4.53710	489.85641	725.18488	1.56701	591.79132	37.17292	755.23706	-947.54333	
2640	26.390	-750.84290	21.42986	-648.69299	816.24127	19.81903	-624.43463	-682.43799	4.81182	489.67743	724.46936	1.95665	591.64807	36.56649	754.45459	-948.27795	
2641	26.400	-751.63416	21.15405	-648.84619	815.59808	19.37741	-624.48346	-683.17804	5.23144	489.57474	723.67700	2.28220	591.60962	35.92583	753.75061	-949.24872	
2642	26.410	-752.62378	20.67767	-649.14453	814.85205	18.76528	-624.57660	-683.83795	5.68654	489.45490	722.91962	2.62108	591.56189	35.21111	753.03448	-950.08752	
2643	26.420	-753.20654	20.23861	-649.20367	814.02478	18.27668	-624.71393	-684.67584	5.95748	489.24741	722.19098	3.15385	591.44989	34.42689	752.33142	-950.76117	
2644	26.430	-753.96533	19.63647	-649.16718	813.49084	17.96595	-624.73090	-685.47467	6.27725	489.09579	721.56500	3.57863	591.34790	33.68349	751.70374	-951.27954	
2645	26.440	-754.54456	19.20429	-649.41064	812.75677	17.42391	-624.88165	-685.96906	6.53000	489.03107	720.71381	3.94719	591.25861	33.12070	751.06049	-951.59943	
2646	26.450	-755.50433	18.85891	-649.44995	811.85907	16.83862	-625.11249	-686.74786	6.83550	488.93152	719.99323	4.28946	591.15356	32.11040	750.23193	-952.40771	
2647	26.460	-756.33783	18.38333	-649.80542	811.08661	16.36571	-625.32324	-687.70294	7.22591	488.74243	719.23273	4.56989	591.00513	31.22325	749.67053	-952.82556	
2648	26.470	-756.94269	17.68325	-650.09320	810.10229	15.64831	-625.48193	-688.41278	7.53677	488.55692	718.36810	5.04043	590.83258	30.70811	748.88190	-953.16614	
2649	26.480	-757.87921	17.26669	-649.92090	809.30438	15.27600	-625.57568	-689.21008	7.90208	488.38477	717.51825	5.44151	590.65320	29.67563	748.18304	-953.77808	
2650	26.490	-758.55823	16.69400	-649.97278	808.72266	15.02002	-625.61096	-690.01349	8.14885	488.39175	716.79791	5.82572	590.48627	28.74016	747.57458	-954.38477	
2651	26.500	-759.55939	16.44689	-650.16669	807.84973	14.42885	-625.62689	-690.90015	8.62859	488.23840	715.94122	6.25753	590.37616	28.31809	746.87616	-954.85480	
2652	26.510	-760.33765	15.97148	-650.43188	807.01740	13.96709	-625.74750	-691.80133	8.95367	488.08942	715.12012	6.55530	590.24756	27.14023	746.02338	-955.72717	
2653	26.520	-761.18506	15.49918	-650.52570	806.20166	13.55447	-626.03333	-692.51373	9.22153	488.05576	714.26770	6.99893	590.25348	26.49076	745.41058	-956.41681	
2654	26.530	-761.82233	15.03042	-650.59912	805.36700	13.05827	-626.05151	-693.26343	9.55369	488.02567	713.52002	7.38909	590.22540	25.88719	744.73108	-957.32892	
2655	26.540	-762.68445	14.44214	-650.65173	804.48102	12.55338	-626.34875	-694.05725	9.94312	487.82745	712.67902	7.76744	590.16217	25.01315	743.98718	-958.17133	
2656	26.550	-763.69122	14.00903	-650.93390	803.63361	12.13017	-626.42328	-695.15698	10.50373	487.67432	711.70917	8.12948	589.91034	24.01000	743.23944	-958.91089	
2657	26.560	-764.49255	13.46184	-651.02649	802.85504	11.74358	-626.42261	-695.86798	10.56027	487.51392	710.92432	8.53475	589.72284	23.08057	742.52612	-959.65955	
2658	26.570	-765.51086	13.04988	-650.94025	801.95349	11.12243	-626.59851	-696.90735	10.83574	487.48849	710.08630	8.85503	589.60840	22.33231	741.84949	-960.38422	
2659	26.580	-766.27441	12.51923	-651.13837	800.84009	10.44659	-626.74841	-697.52405	11.12048	487.39844	709.00903	9.25328	589.43439	21.52267	741.15698	-960.80371	
2660	26.590	-766.96741	12.14126	-651.51312	800.08386	10.30682	-626.90643	-698.48743	11.56937	487.23923	708.24408	9.53655	589.33722	20.58279	740.52966	-961.46710	
2661	26.600	-768.28992	11.80354	-651.57275	799.20190	9.91095	-626.99982	-699.53461	11.85832	487.06125	707.33582	10.00453	589.24084	19.82049	739.68414	-962.03784	
2662	26.610	-769.02991	11.19854	-651.62891	798.23883	9.31519	-627.10504	-700.13910	12.07915	487.04129	706.49286	10.38603	589.11542	18.93222	739.09479	-962.58081	
